<?xml version="1.0" ?><svg style="enable-background:new 0 0 24 24;" version="1.1" viewBox="0 0 24 24" xml:space="preserve" xmlns="http://www.w3.org/2000/svg" xmlns:xlink="http://www.w3.org/1999/xlink"><style type="text/css">
	.st0{opacity:0.2;fill:none;stroke:#000000;stroke-width:5.000000e-02;stroke-miterlimit:10;}
</style><g id="grid_system"/><g id="_icons"><path d="M18,4H6C3.8,4,2,5.8,2,8v8c0,2.2,1.8,4,4,4h12c2.2,0,4-1.8,4-4V8C22,5.8,20.2,4,18,4z M20,16c0,1.1-0.9,2-2,2H6   c-1.1,0-2-0.9-2-2V8c0-1.1,0.9-2,2-2h12c1.1,0,2,0.9,2,2V16z"/><path d="M17.5,11h-6c-0.8,0-1.5,0.7-1.5,1.5v3c0,0.8,0.7,1.5,1.5,1.5h6c0.8,0,1.5-0.7,1.5-1.5v-3C19,11.7,18.3,11,17.5,11z"/></g></svg>